<?xml version="1.0" encoding="UTF-8" standalone="no"?><svg xmlns="http://www.w3.org/2000/svg" xmlns:xlink="http://www.w3.org/1999/xlink" contentScriptType="application/ecmascript" contentStyleType="text/css" height="618px" preserveAspectRatio="none" style="width:2202px;height:618px;" version="1.1" viewBox="0 0 2202 618" width="2202px" zoomAndPan="magnify">
    <defs>
        <filter height="300%" id="f1rbu2jkzsc41g" width="300%" x="-1" y="-1">
            <feGaussianBlur result="blurOut" stdDeviation="2.0" />
            <feColorMatrix in="blurOut" result="blurOut2" type="matrix" values="0 0 0 0 0 0 0 0 0 0 0 0 0 0 0 0 0 0 .4 0" />
            <feOffset dx="4.0" dy="4.0" in="blurOut2" result="blurOut3" />
            <feBlend in="SourceGraphic" in2="blurOut3" mode="normal" />
        </filter>
    </defs>
    <g>
        <!--MD5=[d5219f1ec25cab7690609b92f27f79e3]
cluster pojo-->
        <polygon fill="#FFFFFF" filter="url(#f1rbu2jkzsc41g)" points="1098,6,1136,6,1143,28.4883,1448,28.4883,1448,291,1098,291,1098,6" style="stroke: #000000; stroke-width: 1.5;" />
        <line style="stroke: #000000; stroke-width: 1.5;" x1="1098" x2="1143" y1="28.4883" y2="28.4883" /><text fill="#000000" font-family="sans-serif" font-size="14" font-weight="bold" lengthAdjust="spacingAndGlyphs" textLength="32" x="1102" y="21.5352">pojo</text>
        <!--MD5=[41793ebf2473be711c2d2bac7d4ab610]
cluster io-->
        <polygon fill="#FFFFFF" filter="url(#f1rbu2jkzsc41g)" points="1763,172.5,1783,172.5,1790,194.9883,2069,194.9883,2069,284.5,1763,284.5,1763,172.5" style="stroke: #000000; stroke-width: 1.5;" />
        <line style="stroke: #000000; stroke-width: 1.5;" x1="1763" x2="1790" y1="194.9883" y2="194.9883" /><text fill="#000000" font-family="sans-serif" font-size="14" font-weight="bold" lengthAdjust="spacingAndGlyphs" textLength="14" x="1767" y="188.0352">io</text>
        <!--MD5=[77140a42179fe8241cde5d77dd05aadc]
cluster config-->
        <polygon fill="#FFFFFF" filter="url(#f1rbu2jkzsc41g)" points="1381,321.5,1432,321.5,1439,343.9883,2088,343.9883,2088,596.5,1381,596.5,1381,321.5" style="stroke: #000000; stroke-width: 1.5;" />
        <line style="stroke: #000000; stroke-width: 1.5;" x1="1381" x2="1439" y1="343.9883" y2="343.9883" /><text fill="#000000" font-family="sans-serif" font-size="14" font-weight="bold" lengthAdjust="spacingAndGlyphs" textLength="45" x="1385" y="337.0352">config</text>
        <!--MD5=[4613b12cc1bc09c3aafe5f98fbc641a9]
cluster sqlSession-->
        <polygon fill="#FFFFFF" filter="url(#f1rbu2jkzsc41g)" points="16,315,99,315,106,337.4883,1260,337.4883,1260,606,16,606,16,315" style="stroke: #000000; stroke-width: 1.5;" />
        <line style="stroke: #000000; stroke-width: 1.5;" x1="16" x2="106" y1="337.4883" y2="337.4883" /><text fill="#000000" font-family="sans-serif" font-size="14" font-weight="bold" lengthAdjust="spacingAndGlyphs" textLength="77" x="20" y="330.5352">sqlSession</text>
        <!--MD5=[9b7eb76f801c309757ef5968cb2349d9]
class Configuration-->
        <rect codeLine="26" fill="#FEFECE" filter="url(#f1rbu2jkzsc41g)" height="73.9102" id="Configuration" style="stroke: #A80036; stroke-width: 1.5;" width="317" x="1114.5" y="201" />
        <ellipse cx="1225.25" cy="217" fill="#ADD1B2" rx="11" ry="11" style="stroke: #A80036; stroke-width: 1.0;" />
        <path d="M1227.7231,223.1431 Q1227.1421,223.4419 1226.5029,223.5913 Q1225.8638,223.7407 1225.1582,223.7407 Q1222.6514,223.7407 1221.3315,222.0889 Q1220.0117,220.437 1220.0117,217.3159 Q1220.0117,214.1865 1221.3315,212.5347 Q1222.6514,210.8828 1225.1582,210.8828 Q1225.8638,210.8828 1226.5112,211.0322 Q1227.1587,211.1816 1227.7231,211.4805 L1227.7231,214.2031 Q1227.0923,213.6221 1226.4988,213.3523 Q1225.9053,213.0825 1225.2744,213.0825 Q1223.9297,213.0825 1223.2449,214.1492 Q1222.5601,215.2158 1222.5601,217.3159 Q1222.5601,219.4077 1223.2449,220.4744 Q1223.9297,221.541 1225.2744,221.541 Q1225.9053,221.541 1226.4988,221.2712 Q1227.0923,221.0015 1227.7231,220.4204 Z " />
        <ellipse cx="1250.75" cy="216.5" fill="#84BE84" rx="3" ry="3" style="stroke: #038048; stroke-width: 1.0;" /><text fill="#000000" font-family="sans-serif" font-size="12" lengthAdjust="spacingAndGlyphs" textLength="76" x="1256.75" y="221.5352">Configuration</text>
        <line style="stroke: #A80036; stroke-width: 1.5;" x1="1115.5" x2="1430.5" y1="233" y2="233" />
        <rect fill="none" height="6" style="stroke: #C82930; stroke-width: 1.0;" width="6" x="1122.5" y="241" /><text fill="#000000" font-family="sans-serif" font-size="11" lengthAdjust="spacingAndGlyphs" textLength="124" x="1134.5" y="247.6348">DataSource dataSource</text>
        <rect fill="none" height="6" style="stroke: #C82930; stroke-width: 1.0;" width="6" x="1122.5" y="253.9551" /><text fill="#000000" font-family="sans-serif" font-size="11" lengthAdjust="spacingAndGlyphs" textLength="291" x="1134.5" y="260.5898">Map&lt;String,MappedStatement&gt; mappedStatementMap</text>
        <line style="stroke: #A80036; stroke-width: 1.5;" x1="1115.5" x2="1430.5" y1="266.9102" y2="266.9102" />
        <!--MD5=[81c1678f3b146417d42d9549aee5a5c0]
class DataSource-->
        <rect codeLine="31" fill="#FEFECE" filter="url(#f1rbu2jkzsc41g)" height="48" id="DataSource" style="stroke: #A80036; stroke-width: 1.5;" width="108" x="1324" y="67" />
        <ellipse cx="1339" cy="83" fill="#ADD1B2" rx="11" ry="11" style="stroke: #A80036; stroke-width: 1.0;" />
        <path d="M1341.4731,89.1431 Q1340.8921,89.4419 1340.2529,89.5913 Q1339.6138,89.7407 1338.9082,89.7407 Q1336.4014,89.7407 1335.0815,88.0889 Q1333.7617,86.437 1333.7617,83.3159 Q1333.7617,80.1865 1335.0815,78.5347 Q1336.4014,76.8828 1338.9082,76.8828 Q1339.6138,76.8828 1340.2612,77.0322 Q1340.9087,77.1816 1341.4731,77.4805 L1341.4731,80.2031 Q1340.8423,79.6221 1340.2488,79.3523 Q1339.6553,79.0825 1339.0244,79.0825 Q1337.6797,79.0825 1336.9949,80.1492 Q1336.3101,81.2158 1336.3101,83.3159 Q1336.3101,85.4077 1336.9949,86.4744 Q1337.6797,87.541 1339.0244,87.541 Q1339.6553,87.541 1340.2488,87.2712 Q1340.8423,87.0015 1341.4731,86.4204 Z " />
        <ellipse cx="1358" cy="82.5" fill="#84BE84" rx="3" ry="3" style="stroke: #038048; stroke-width: 1.0;" /><text fill="#000000" font-family="sans-serif" font-size="12" lengthAdjust="spacingAndGlyphs" textLength="65" x="1364" y="87.5352">DataSource</text>
        <line style="stroke: #A80036; stroke-width: 1.5;" x1="1325" x2="1431" y1="99" y2="99" />
        <line style="stroke: #A80036; stroke-width: 1.5;" x1="1325" x2="1431" y1="107" y2="107" />
        <!--MD5=[6b760133fe383d5e6711303908d95ab6]
class MappedStatement-->
        <rect codeLine="37" fill="#FEFECE" filter="url(#f1rbu2jkzsc41g)" height="99.8203" id="MappedStatement" style="stroke: #A80036; stroke-width: 1.5;" width="162" x="1127" y="41" />
        <ellipse cx="1148.3" cy="57" fill="#ADD1B2" rx="11" ry="11" style="stroke: #A80036; stroke-width: 1.0;" />
        <path d="M1150.7731,63.1431 Q1150.1921,63.4419 1149.5529,63.5913 Q1148.9138,63.7407 1148.2082,63.7407 Q1145.7014,63.7407 1144.3815,62.0889 Q1143.0617,60.437 1143.0617,57.3159 Q1143.0617,54.1865 1144.3815,52.5347 Q1145.7014,50.8828 1148.2082,50.8828 Q1148.9138,50.8828 1149.5612,51.0322 Q1150.2087,51.1816 1150.7731,51.4805 L1150.7731,54.2031 Q1150.1423,53.6221 1149.5488,53.3523 Q1148.9553,53.0825 1148.3244,53.0825 Q1146.9797,53.0825 1146.2949,54.1492 Q1145.6101,55.2158 1145.6101,57.3159 Q1145.6101,59.4077 1146.2949,60.4744 Q1146.9797,61.541 1148.3244,61.541 Q1148.9553,61.541 1149.5488,61.2712 Q1150.1423,61.0015 1150.7731,60.4204 Z " />
        <ellipse cx="1168.7" cy="56.5" fill="#84BE84" rx="3" ry="3" style="stroke: #038048; stroke-width: 1.0;" /><text fill="#000000" font-family="sans-serif" font-size="12" lengthAdjust="spacingAndGlyphs" textLength="105" x="1174.7" y="61.5352">MappedStatement</text>
        <line style="stroke: #A80036; stroke-width: 1.5;" x1="1128" x2="1288" y1="73" y2="73" />
        <rect fill="none" height="6" style="stroke: #C82930; stroke-width: 1.0;" width="6" x="1135" y="81" /><text fill="#000000" font-family="sans-serif" font-size="11" lengthAdjust="spacingAndGlyphs" textLength="51" x="1147" y="87.6348">Integer id</text>
        <rect fill="none" height="6" style="stroke: #C82930; stroke-width: 1.0;" width="6" x="1135" y="93.9551" /><text fill="#000000" font-family="sans-serif" font-size="11" lengthAdjust="spacingAndGlyphs" textLength="51" x="1147" y="100.5898">String sql</text>
        <rect fill="none" height="6" style="stroke: #C82930; stroke-width: 1.0;" width="6" x="1135" y="106.9102" /><text fill="#000000" font-family="sans-serif" font-size="11" lengthAdjust="spacingAndGlyphs" textLength="136" x="1147" y="113.5449">Class&lt;?&gt; parameterType</text>
        <rect fill="none" height="6" style="stroke: #C82930; stroke-width: 1.0;" width="6" x="1135" y="119.8652" /><text fill="#000000" font-family="sans-serif" font-size="11" lengthAdjust="spacingAndGlyphs" textLength="112" x="1147" y="126.5">Class&lt;?&gt; resultType</text>
        <line style="stroke: #A80036; stroke-width: 1.5;" x1="1128" x2="1288" y1="132.8203" y2="132.8203" />
        <!--MD5=[9a6e5ab9a42eefab8b7e16c17ab51283]
class Resources-->
        <rect codeLine="45" fill="#FEFECE" filter="url(#f1rbu2jkzsc41g)" height="60.9551" id="Resources" style="stroke: #A80036; stroke-width: 1.5;" width="274" x="1779" y="207.5" />
        <ellipse cx="1876.75" cy="223.5" fill="#ADD1B2" rx="11" ry="11" style="stroke: #A80036; stroke-width: 1.0;" />
        <path d="M1879.2231,229.6431 Q1878.6421,229.9419 1878.0029,230.0913 Q1877.3638,230.2407 1876.6582,230.2407 Q1874.1514,230.2407 1872.8315,228.5889 Q1871.5117,226.937 1871.5117,223.8159 Q1871.5117,220.6865 1872.8315,219.0347 Q1874.1514,217.3828 1876.6582,217.3828 Q1877.3638,217.3828 1878.0112,217.5322 Q1878.6587,217.6816 1879.2231,217.9805 L1879.2231,220.7031 Q1878.5923,220.1221 1877.9988,219.8523 Q1877.4053,219.5825 1876.7744,219.5825 Q1875.4297,219.5825 1874.7449,220.6492 Q1874.0601,221.7158 1874.0601,223.8159 Q1874.0601,225.9077 1874.7449,226.9744 Q1875.4297,228.041 1876.7744,228.041 Q1877.4053,228.041 1877.9988,227.7712 Q1878.5923,227.5015 1879.2231,226.9204 Z " />
        <ellipse cx="1902.25" cy="223" fill="#84BE84" rx="3" ry="3" style="stroke: #038048; stroke-width: 1.0;" /><text fill="#000000" font-family="sans-serif" font-size="12" lengthAdjust="spacingAndGlyphs" textLength="59" x="1908.25" y="228.0352">Resources</text>
        <line style="stroke: #A80036; stroke-width: 1.5;" x1="1780" x2="2052" y1="239.5" y2="239.5" />
        <line style="stroke: #A80036; stroke-width: 1.5;" x1="1780" x2="2052" y1="247.5" y2="247.5" />
        <ellipse cx="1790" cy="258.5" fill="#84BE84" rx="3" ry="3" style="stroke: #038048; stroke-width: 1.0;" /><text fill="#000000" font-family="sans-serif" font-size="11" lengthAdjust="spacingAndGlyphs" textLength="248" x="1799" y="262.1348">InputStream getResourceAsSteam(String path)</text>
        <!--MD5=[641d3e9371274e3a5efdb123014a13cd]
class BoundSql-->
        <rect codeLine="111" fill="#FEFECE" filter="url(#f1rbu2jkzsc41g)" height="73.9102" id="BoundSql" style="stroke: #A80036; stroke-width: 1.5;" width="289" x="1397.5" y="356.5" />
        <ellipse cx="1505.75" cy="372.5" fill="#ADD1B2" rx="11" ry="11" style="stroke: #A80036; stroke-width: 1.0;" />
        <path d="M1508.2231,378.6431 Q1507.6421,378.9419 1507.0029,379.0913 Q1506.3638,379.2407 1505.6582,379.2407 Q1503.1514,379.2407 1501.8315,377.5889 Q1500.5117,375.937 1500.5117,372.8159 Q1500.5117,369.6865 1501.8315,368.0347 Q1503.1514,366.3828 1505.6582,366.3828 Q1506.3638,366.3828 1507.0112,366.5322 Q1507.6587,366.6816 1508.2231,366.9805 L1508.2231,369.7031 Q1507.5923,369.1221 1506.9988,368.8523 Q1506.4053,368.5825 1505.7744,368.5825 Q1504.4297,368.5825 1503.7449,369.6492 Q1503.0601,370.7158 1503.0601,372.8159 Q1503.0601,374.9077 1503.7449,375.9744 Q1504.4297,377.041 1505.7744,377.041 Q1506.4053,377.041 1506.9988,376.7712 Q1507.5923,376.5015 1508.2231,375.9204 Z " />
        <ellipse cx="1531.25" cy="372" fill="#84BE84" rx="3" ry="3" style="stroke: #038048; stroke-width: 1.0;" /><text fill="#000000" font-family="sans-serif" font-size="12" lengthAdjust="spacingAndGlyphs" textLength="53" x="1537.25" y="377.0352">BoundSql</text>
        <line style="stroke: #A80036; stroke-width: 1.5;" x1="1398.5" x2="1685.5" y1="388.5" y2="388.5" />
        <rect fill="none" height="6" style="stroke: #C82930; stroke-width: 1.0;" width="6" x="1405.5" y="396.5" /><text fill="#000000" font-family="sans-serif" font-size="11" lengthAdjust="spacingAndGlyphs" textLength="75" x="1417.5" y="403.1348">String sqlText</text>
        <rect fill="none" height="6" style="stroke: #C82930; stroke-width: 1.0;" width="6" x="1405.5" y="409.4551" /><text fill="#000000" font-family="sans-serif" font-size="11" lengthAdjust="spacingAndGlyphs" textLength="263" x="1417.5" y="416.0898">List&lt;ParameterMapping&gt; parameterMappingList;</text>
        <line style="stroke: #A80036; stroke-width: 1.5;" x1="1398.5" x2="1685.5" y1="422.4102" y2="422.4102" />
        <!--MD5=[81fd25b92c873c4dcfc5e75e60972e89]
class XMLConfigerBuilder-->
        <rect codeLine="56" fill="#FEFECE" filter="url(#f1rbu2jkzsc41g)" height="73.9102" id="XMLConfigerBuilder" style="stroke: #A80036; stroke-width: 1.5;" width="350" x="1722" y="356.5" />
        <ellipse cx="1831.25" cy="372.5" fill="#ADD1B2" rx="11" ry="11" style="stroke: #A80036; stroke-width: 1.0;" />
        <path d="M1833.7231,378.6431 Q1833.1421,378.9419 1832.5029,379.0913 Q1831.8638,379.2407 1831.1582,379.2407 Q1828.6514,379.2407 1827.3315,377.5889 Q1826.0117,375.937 1826.0117,372.8159 Q1826.0117,369.6865 1827.3315,368.0347 Q1828.6514,366.3828 1831.1582,366.3828 Q1831.8638,366.3828 1832.5112,366.5322 Q1833.1587,366.6816 1833.7231,366.9805 L1833.7231,369.7031 Q1833.0923,369.1221 1832.4988,368.8523 Q1831.9053,368.5825 1831.2744,368.5825 Q1829.9297,368.5825 1829.2449,369.6492 Q1828.5601,370.7158 1828.5601,372.8159 Q1828.5601,374.9077 1829.2449,375.9744 Q1829.9297,377.041 1831.2744,377.041 Q1831.9053,377.041 1832.4988,376.7712 Q1833.0923,376.5015 1833.7231,375.9204 Z " />
        <ellipse cx="1856.75" cy="372" fill="#84BE84" rx="3" ry="3" style="stroke: #038048; stroke-width: 1.0;" /><text fill="#000000" font-family="sans-serif" font-size="12" lengthAdjust="spacingAndGlyphs" textLength="112" x="1862.75" y="377.0352">XMLConfigerBuilder</text>
        <line style="stroke: #A80036; stroke-width: 1.5;" x1="1723" x2="2071" y1="388.5" y2="388.5" />
        <rect fill="none" height="6" style="stroke: #C82930; stroke-width: 1.0;" width="6" x="1730" y="396.5" /><text fill="#000000" font-family="sans-serif" font-size="11" lengthAdjust="spacingAndGlyphs" textLength="151" x="1742" y="403.1348">Configuration configuration</text>
        <line style="stroke: #A80036; stroke-width: 1.5;" x1="1723" x2="2071" y1="409.4551" y2="409.4551" />
        <ellipse cx="1733" cy="420.4551" fill="#84BE84" rx="3" ry="3" style="stroke: #038048; stroke-width: 1.0;" /><text fill="#000000" font-family="sans-serif" font-size="11" lengthAdjust="spacingAndGlyphs" textLength="324" x="1742" y="424.0898">Configuration parseConfiguration(InputStream inputStream)</text>
        <!--MD5=[c1c20cc1eef95b00989cf76b343bd7b0]
class XMLMapperBuilder-->
        <rect codeLine="64" fill="#FEFECE" filter="url(#f1rbu2jkzsc41g)" height="73.9102" id="XMLMapperBuilder" style="stroke: #A80036; stroke-width: 1.5;" width="223" x="1816.5" y="506.5" />
        <ellipse cx="1863.75" cy="522.5" fill="#ADD1B2" rx="11" ry="11" style="stroke: #A80036; stroke-width: 1.0;" />
        <path d="M1866.2231,528.6431 Q1865.6421,528.9419 1865.0029,529.0913 Q1864.3638,529.2407 1863.6582,529.2407 Q1861.1514,529.2407 1859.8315,527.5889 Q1858.5117,525.937 1858.5117,522.8159 Q1858.5117,519.6865 1859.8315,518.0347 Q1861.1514,516.3828 1863.6582,516.3828 Q1864.3638,516.3828 1865.0112,516.5322 Q1865.6587,516.6816 1866.2231,516.9805 L1866.2231,519.7031 Q1865.5923,519.1221 1864.9988,518.8523 Q1864.4053,518.5825 1863.7744,518.5825 Q1862.4297,518.5825 1861.7449,519.6492 Q1861.0601,520.7158 1861.0601,522.8159 Q1861.0601,524.9077 1861.7449,525.9744 Q1862.4297,527.041 1863.7744,527.041 Q1864.4053,527.041 1864.9988,526.7712 Q1865.5923,526.5015 1866.2231,525.9204 Z " />
        <ellipse cx="1889.25" cy="522" fill="#84BE84" rx="3" ry="3" style="stroke: #038048; stroke-width: 1.0;" /><text fill="#000000" font-family="sans-serif" font-size="12" lengthAdjust="spacingAndGlyphs" textLength="109" x="1895.25" y="527.0352">XMLMapperBuilder</text>
        <line style="stroke: #A80036; stroke-width: 1.5;" x1="1817.5" x2="2038.5" y1="538.5" y2="538.5" />
        <rect fill="none" height="6" style="stroke: #C82930; stroke-width: 1.0;" width="6" x="1824.5" y="546.5" /><text fill="#000000" font-family="sans-serif" font-size="11" lengthAdjust="spacingAndGlyphs" textLength="151" x="1836.5" y="553.1348">Configuration configuration</text>
        <line style="stroke: #A80036; stroke-width: 1.5;" x1="1817.5" x2="2038.5" y1="559.4551" y2="559.4551" />
        <ellipse cx="1827.5" cy="570.4551" fill="#84BE84" rx="3" ry="3" style="stroke: #038048; stroke-width: 1.0;" /><text fill="#000000" font-family="sans-serif" font-size="11" lengthAdjust="spacingAndGlyphs" textLength="197" x="1836.5" y="574.0898">void parse(InputStream inputStream)</text>
        <!--MD5=[b2d825315a959852f372ca4f4d92a199]
class SqlSession-->
        <rect codeLine="84" fill="#FEFECE" filter="url(#f1rbu2jkzsc41g)" height="86.8652" id="SqlSession" style="stroke: #A80036; stroke-width: 1.5;" width="342" x="32" y="350" />
        <ellipse cx="163.75" cy="366" fill="#B4A7E5" rx="11" ry="11" style="stroke: #A80036; stroke-width: 1.0;" />
        <path d="M160.1777,362.2651 L160.1777,360.1069 L167.5571,360.1069 L167.5571,362.2651 L165.0918,362.2651 L165.0918,370.3418 L167.5571,370.3418 L167.5571,372.5 L160.1777,372.5 L160.1777,370.3418 L162.6431,370.3418 L162.6431,362.2651 Z " />
        <ellipse cx="189.25" cy="365.5" fill="#84BE84" rx="3" ry="3" style="stroke: #038048; stroke-width: 1.0;" /><text fill="#000000" font-family="sans-serif" font-size="12" font-style="italic" lengthAdjust="spacingAndGlyphs" textLength="59" x="195.25" y="370.5352">SqlSession</text>
        <line style="stroke: #A80036; stroke-width: 1.5;" x1="33" x2="373" y1="382" y2="382" />
        <line style="stroke: #A80036; stroke-width: 1.5;" x1="33" x2="373" y1="390" y2="390" />
        <ellipse cx="43" cy="401" fill="#84BE84" rx="3" ry="3" style="stroke: #038048; stroke-width: 1.0;" /><text fill="#000000" font-family="sans-serif" font-size="11" lengthAdjust="spacingAndGlyphs" textLength="316" x="52" y="404.6348">&lt;E&gt; List&lt;E&gt; selectList(String statementId, Object... param)</text>
        <ellipse cx="43" cy="413.9551" fill="#84BE84" rx="3" ry="3" style="stroke: #038048; stroke-width: 1.0;" /><text fill="#000000" font-family="sans-serif" font-size="11" lengthAdjust="spacingAndGlyphs" textLength="287" x="52" y="417.5898">&lt;T&gt; T selectOne(String statementId,Object... params)</text>
        <ellipse cx="43" cy="426.9102" fill="#84BE84" rx="3" ry="3" style="stroke: #038048; stroke-width: 1.0;" /><text fill="#000000" font-family="sans-serif" font-size="11" lengthAdjust="spacingAndGlyphs" textLength="62" x="52" y="430.5449">void close()</text>
        <!--MD5=[b4dc9d8f7fca2e201387af5a808fbc02]
class DefualtSqlSession-->
        <rect codeLine="90" fill="#FEFECE" filter="url(#f1rbu2jkzsc41g)" height="80.1758" id="DefualtSqlSession" style="stroke: #A80036; stroke-width: 1.5;" width="177" x="244.5" y="503.5" />
        <ellipse cx="274.8" cy="522.6328" fill="#ADD1B2" rx="11" ry="11" style="stroke: #A80036; stroke-width: 1.0;" />
        <path d="M277.2731,528.7759 Q276.6921,529.0747 276.0529,529.2241 Q275.4138,529.3735 274.7082,529.3735 Q272.2014,529.3735 270.8815,527.7217 Q269.5617,526.0698 269.5617,522.9487 Q269.5617,519.8193 270.8815,518.1675 Q272.2014,516.5156 274.7082,516.5156 Q275.4138,516.5156 276.0612,516.665 Q276.7087,516.8145 277.2731,517.1133 L277.2731,519.8359 Q276.6423,519.2549 276.0488,518.9851 Q275.4553,518.7153 274.8244,518.7153 Q273.4797,518.7153 272.7949,519.782 Q272.1101,520.8486 272.1101,522.9487 Q272.1101,525.0405 272.7949,526.1072 Q273.4797,527.1738 274.8244,527.1738 Q275.4553,527.1738 276.0488,526.9041 Q276.6423,526.6343 277.2731,526.0532 Z " /><text fill="#000000" font-family="sans-serif" font-size="12" font-style="italic" lengthAdjust="spacingAndGlyphs" textLength="71" x="312.2" y="520.1016">«SqlSession»</text>
        <ellipse cx="297.2" cy="529.1992" fill="#84BE84" rx="3" ry="3" style="stroke: #038048; stroke-width: 1.0;" /><text fill="#000000" font-family="sans-serif" font-size="12" lengthAdjust="spacingAndGlyphs" textLength="100" x="303.2" y="534.2344">DefualtSqlSession</text>
        <line style="stroke: #A80036; stroke-width: 1.5;" x1="245.5" x2="420.5" y1="541.7656" y2="541.7656" />
        <rect fill="none" height="6" style="stroke: #C82930; stroke-width: 1.0;" width="6" x="252.5" y="549.7656" /><text fill="#000000" font-family="sans-serif" font-size="11" lengthAdjust="spacingAndGlyphs" textLength="151" x="264.5" y="556.4004">Configuration configuration</text>
        <rect fill="none" height="6" style="stroke: #C82930; stroke-width: 1.0;" width="6" x="252.5" y="562.7207" /><text fill="#000000" font-family="sans-serif" font-size="11" lengthAdjust="spacingAndGlyphs" textLength="99" x="264.5" y="569.3555">Executor executor</text>
        <line style="stroke: #A80036; stroke-width: 1.5;" x1="245.5" x2="420.5" y1="575.6758" y2="575.6758" />
        <!--MD5=[c95ded923b8781b4c82f5e9ed0f03b69]
class SqlSessionFactory-->
        <rect codeLine="71" fill="#FEFECE" filter="url(#f1rbu2jkzsc41g)" height="60.9551" id="SqlSessionFactory" style="stroke: #A80036; stroke-width: 1.5;" width="162" x="409" y="363" />
        <ellipse cx="432.55" cy="379" fill="#B4A7E5" rx="11" ry="11" style="stroke: #A80036; stroke-width: 1.0;" />
        <path d="M428.9777,375.2651 L428.9777,373.1069 L436.3571,373.1069 L436.3571,375.2651 L433.8918,375.2651 L433.8918,383.3418 L436.3571,383.3418 L436.3571,385.5 L428.9777,385.5 L428.9777,383.3418 L431.4431,383.3418 L431.4431,375.2651 Z " />
        <ellipse cx="453.45" cy="378.5" fill="#84BE84" rx="3" ry="3" style="stroke: #038048; stroke-width: 1.0;" /><text fill="#000000" font-family="sans-serif" font-size="12" font-style="italic" lengthAdjust="spacingAndGlyphs" textLength="100" x="459.45" y="383.5352">SqlSessionFactory</text>
        <line style="stroke: #A80036; stroke-width: 1.5;" x1="410" x2="570" y1="395" y2="395" />
        <line style="stroke: #A80036; stroke-width: 1.5;" x1="410" x2="570" y1="403" y2="403" />
        <ellipse cx="420" cy="414" fill="#84BE84" rx="3" ry="3" style="stroke: #038048; stroke-width: 1.0;" /><text fill="#000000" font-family="sans-serif" font-size="11" lengthAdjust="spacingAndGlyphs" textLength="136" x="429" y="417.6348">SqlSession openSession()</text>
        <!--MD5=[652da55b28652cd6379bfd4b270e91ca]
class SqlSessionFactoryBuilder-->
        <rect codeLine="49" fill="#FEFECE" filter="url(#f1rbu2jkzsc41g)" height="73.9102" id="SqlSessionFactoryBuilder" style="stroke: #A80036; stroke-width: 1.5;" width="266" x="457" y="506.5" />
        <ellipse cx="510.25" cy="522.5" fill="#ADD1B2" rx="11" ry="11" style="stroke: #A80036; stroke-width: 1.0;" />
        <path d="M512.7231,528.6431 Q512.1421,528.9419 511.5029,529.0913 Q510.8638,529.2407 510.1582,529.2407 Q507.6514,529.2407 506.3315,527.5889 Q505.0117,525.937 505.0117,522.8159 Q505.0117,519.6865 506.3315,518.0347 Q507.6514,516.3828 510.1582,516.3828 Q510.8638,516.3828 511.5112,516.5322 Q512.1587,516.6816 512.7231,516.9805 L512.7231,519.7031 Q512.0923,519.1221 511.4988,518.8523 Q510.9053,518.5825 510.2744,518.5825 Q508.9297,518.5825 508.2449,519.6492 Q507.5601,520.7158 507.5601,522.8159 Q507.5601,524.9077 508.2449,525.9744 Q508.9297,527.041 510.2744,527.041 Q510.9053,527.041 511.4988,526.7712 Q512.0923,526.5015 512.7231,525.9204 Z " />
        <ellipse cx="535.75" cy="522" fill="#84BE84" rx="3" ry="3" style="stroke: #038048; stroke-width: 1.0;" /><text fill="#000000" font-family="sans-serif" font-size="12" lengthAdjust="spacingAndGlyphs" textLength="140" x="541.75" y="527.0352">SqlSessionFactoryBuilder</text>
        <line style="stroke: #A80036; stroke-width: 1.5;" x1="458" x2="722" y1="538.5" y2="538.5" />
        <rect fill="none" height="6" style="stroke: #C82930; stroke-width: 1.0;" width="6" x="465" y="546.5" /><text fill="#000000" font-family="sans-serif" font-size="11" lengthAdjust="spacingAndGlyphs" textLength="151" x="477" y="553.1348">Configuration configuration</text>
        <line style="stroke: #A80036; stroke-width: 1.5;" x1="458" x2="722" y1="559.4551" y2="559.4551" />
        <ellipse cx="468" cy="570.4551" fill="#84BE84" rx="3" ry="3" style="stroke: #038048; stroke-width: 1.0;" /><text fill="#000000" font-family="sans-serif" font-size="11" lengthAdjust="spacingAndGlyphs" textLength="240" x="477" y="574.0898">SqlSessionFactory build(InputStream stream)</text>
        <!--MD5=[df2f7d79d87db86a93d5bc082dfc7f4b]
class DefaultSqlSessionFactory-->
        <rect codeLine="75" fill="#FEFECE" filter="url(#f1rbu2jkzsc41g)" height="80.1758" id="DefaultSqlSessionFactory" style="stroke: #A80036; stroke-width: 1.5;" width="177" x="32.5" y="503.5" />
        <ellipse cx="49.3" cy="522.6328" fill="#ADD1B2" rx="11" ry="11" style="stroke: #A80036; stroke-width: 1.0;" />
        <path d="M51.7731,528.7759 Q51.1921,529.0747 50.5529,529.2241 Q49.9138,529.3735 49.2082,529.3735 Q46.7014,529.3735 45.3815,527.7217 Q44.0617,526.0698 44.0617,522.9487 Q44.0617,519.8193 45.3815,518.1675 Q46.7014,516.5156 49.2082,516.5156 Q49.9138,516.5156 50.5612,516.665 Q51.2087,516.8145 51.7731,517.1133 L51.7731,519.8359 Q51.1423,519.2549 50.5488,518.9851 Q49.9553,518.7153 49.3244,518.7153 Q47.9797,518.7153 47.2949,519.782 Q46.6101,520.8486 46.6101,522.9487 Q46.6101,525.0405 47.2949,526.1072 Q47.9797,527.1738 49.3244,527.1738 Q49.9553,527.1738 50.5488,526.9041 Q51.1423,526.6343 51.7731,526.0532 Z " /><text fill="#000000" font-family="sans-serif" font-size="12" font-style="italic" lengthAdjust="spacingAndGlyphs" textLength="112" x="78.2" y="520.1016">«SqlSessionFactory»</text><text fill="#000000" font-family="sans-serif" font-size="12" lengthAdjust="spacingAndGlyphs" textLength="141" x="63.7" y="534.2344">DefaultSqlSessionFactory</text>
        <line style="stroke: #A80036; stroke-width: 1.5;" x1="33.5" x2="208.5" y1="541.7656" y2="541.7656" />
        <rect fill="none" height="6" style="stroke: #C82930; stroke-width: 1.0;" width="6" x="40.5" y="549.7656" /><text fill="#000000" font-family="sans-serif" font-size="11" lengthAdjust="spacingAndGlyphs" textLength="151" x="52.5" y="556.4004">Configuration configuration</text>
        <line style="stroke: #A80036; stroke-width: 1.5;" x1="33.5" x2="208.5" y1="562.7207" y2="562.7207" />
        <ellipse cx="43.5" cy="573.7207" fill="#84BE84" rx="3" ry="3" style="stroke: #038048; stroke-width: 1.0;" /><text fill="#000000" font-family="sans-serif" font-size="11" lengthAdjust="spacingAndGlyphs" textLength="136" x="52.5" y="577.3555">SqlSession openSession()</text>
        <!--MD5=[a0a1f7f9662f43ef0ece806266f72a6f]
class Executor-->
        <rect codeLine="98" fill="#FEFECE" filter="url(#f1rbu2jkzsc41g)" height="73.9102" id="Executor" style="stroke: #A80036; stroke-width: 1.5;" width="471" x="606.5" y="356.5" />
        <ellipse cx="807.25" cy="372.5" fill="#B4A7E5" rx="11" ry="11" style="stroke: #A80036; stroke-width: 1.0;" />
        <path d="M803.6777,368.7651 L803.6777,366.6069 L811.0571,366.6069 L811.0571,368.7651 L808.5918,368.7651 L808.5918,376.8418 L811.0571,376.8418 L811.0571,379 L803.6777,379 L803.6777,376.8418 L806.1431,376.8418 L806.1431,368.7651 Z " />
        <ellipse cx="832.75" cy="372" fill="#84BE84" rx="3" ry="3" style="stroke: #038048; stroke-width: 1.0;" /><text fill="#000000" font-family="sans-serif" font-size="12" font-style="italic" lengthAdjust="spacingAndGlyphs" textLength="50" x="838.75" y="377.0352">Executor</text>
        <line style="stroke: #A80036; stroke-width: 1.5;" x1="607.5" x2="1076.5" y1="388.5" y2="388.5" />
        <line style="stroke: #A80036; stroke-width: 1.5;" x1="607.5" x2="1076.5" y1="396.5" y2="396.5" /><text fill="#000000" font-family="sans-serif" font-size="11" lengthAdjust="spacingAndGlyphs" textLength="459" x="612.5" y="411.1348">&lt;E&gt; List&lt;E&gt; query(Configuration config,MappedStatement statement,Object params)</text><text fill="#000000" font-family="sans-serif" font-size="11" lengthAdjust="spacingAndGlyphs" textLength="62" x="612.5" y="424.0898">void close()</text>
        <!--MD5=[14b0347fee4552a360b64dc84e7cfbe6]
class SimpleExecutor-->
        <rect codeLine="104" fill="#FEFECE" filter="url(#f1rbu2jkzsc41g)" height="93.1309" id="SimpleExecutor" style="stroke: #A80036; stroke-width: 1.5;" width="485" x="758.5" y="497" />
        <ellipse cx="947.25" cy="516.1328" fill="#ADD1B2" rx="11" ry="11" style="stroke: #A80036; stroke-width: 1.0;" />
        <path d="M949.7231,522.2759 Q949.1421,522.5747 948.5029,522.7241 Q947.8638,522.8735 947.1582,522.8735 Q944.6514,522.8735 943.3315,521.2217 Q942.0117,519.5698 942.0117,516.4487 Q942.0117,513.3193 943.3315,511.6675 Q944.6514,510.0156 947.1582,510.0156 Q947.8638,510.0156 948.5112,510.165 Q949.1587,510.3145 949.7231,510.6133 L949.7231,513.3359 Q949.0923,512.7549 948.4988,512.4851 Q947.9053,512.2153 947.2744,512.2153 Q945.9297,512.2153 945.2449,513.282 Q944.5601,514.3486 944.5601,516.4487 Q944.5601,518.5405 945.2449,519.6072 Q945.9297,520.6738 947.2744,520.6738 Q947.9053,520.6738 948.4988,520.4041 Q949.0923,520.1343 949.7231,519.5532 Z " /><text fill="#000000" font-family="sans-serif" font-size="12" font-style="italic" lengthAdjust="spacingAndGlyphs" textLength="62" x="986.25" y="513.6016">«Executor»</text>
        <ellipse cx="972.75" cy="522.6992" fill="#84BE84" rx="3" ry="3" style="stroke: #038048; stroke-width: 1.0;" /><text fill="#000000" font-family="sans-serif" font-size="12" lengthAdjust="spacingAndGlyphs" textLength="88" x="978.75" y="527.7344">SimpleExecutor</text>
        <line style="stroke: #A80036; stroke-width: 1.5;" x1="759.5" x2="1242.5" y1="535.2656" y2="535.2656" />
        <line style="stroke: #A80036; stroke-width: 1.5;" x1="759.5" x2="1242.5" y1="543.2656" y2="543.2656" />
        <rect fill="#F24D5C" height="6" style="stroke: #C82930; stroke-width: 1.0;" width="6" x="766.5" y="551.2656" /><text fill="#000000" font-family="sans-serif" font-size="11" lengthAdjust="spacingAndGlyphs" textLength="179" x="778.5" y="557.9004">BoundSql getBoundSql(String sql)</text><text fill="#000000" font-family="sans-serif" font-size="11" lengthAdjust="spacingAndGlyphs" textLength="459" x="778.5" y="570.8555">&lt;E&gt; List&lt;E&gt; query(Configuration config,MappedStatement statement,Object params)</text><text fill="#000000" font-family="sans-serif" font-size="11" lengthAdjust="spacingAndGlyphs" textLength="62" x="778.5" y="583.8105">void close()</text>
        <!--MD5=[0c45ea8cee0593ad27332a99accbdd60]
reverse link DataSource to Configuration-->
        <path codeLine="34" d="M1358.1,119.47 C1341.43,142.5 1317.5,175.55 1299.26,200.74 " fill="none" id="DataSource-backto-Configuration" style="stroke: #A80036; stroke-width: 1.0;" />
        <polygon fill="#A80036" points="1361.13,115.3,1352.6109,120.2421,1358.1968,119.3492,1359.0896,124.9352,1361.13,115.3" style="stroke: #A80036; stroke-width: 1.0;" />
        <!--MD5=[9991a5b123b01448e6c5e2cc8c830d84]
reverse link MappedStatement to Configuration-->
        <path codeLine="43" d="M1232.08,145.72 C1240.31,164.07 1249.31,184.15 1256.77,200.8 " fill="none" id="MappedStatement-backto-Configuration" style="stroke: #A80036; stroke-width: 1.0;" />
        <polygon fill="#A80036" points="1230.01,141.09,1230.03,150.9388,1232.05,145.6549,1237.3339,147.6749,1230.01,141.09" style="stroke: #A80036; stroke-width: 1.0;" />
        <!--MD5=[61f64ec5105feafa11527d063ae91908]
reverse link Configuration to SqlSessionFactoryBuilder-->
        <path codeLine="53" d="M1276.31,280.18 C1277.49,325.66 1271.56,397.62 1228,437 C1147.11,510.12 847.7,474.52 741,497 C728.27,499.68 715.07,502.93 702.01,506.45 " fill="none" id="Configuration-backto-SqlSessionFactoryBuilder" style="stroke: #A80036; stroke-width: 1.0;" />
        <polygon fill="#A80036" points="1276.14,275.05,1272.4255,284.1715,1276.2975,280.0475,1280.4215,283.9195,1276.14,275.05" style="stroke: #A80036; stroke-width: 1.0;" />
        <!--MD5=[ec59fa6c405d9c94226e84bd8c934202]
reverse link SqlSessionFactory to SqlSessionFactoryBuilder-->
        <path codeLine="54" d="M512.88,428.36 C528.63,451.68 549.55,482.63 565.62,506.42 " fill="none" id="SqlSessionFactory-backto-SqlSessionFactoryBuilder" style="stroke: #A80036; stroke-width: 1.0; stroke-dasharray: 7.0,7.0;" />
        <polygon fill="#A80036" points="510,424.09,511.7256,433.7865,512.7998,428.2326,518.3537,429.3068,510,424.09" style="stroke: #A80036; stroke-width: 1.0;" />
        <!--MD5=[d822ef45fb6ebdbcc0041fd2de91c2df]
reverse link Configuration to XMLConfigerBuilder-->
        <path codeLine="60" d="M1435.32,276.05 C1478.86,284.82 1526.05,293.28 1570,299 C1629.16,306.7 1646.02,292.92 1704,307 C1748.16,317.73 1794.82,338.12 1831.2,356.3 " fill="none" id="Configuration-backto-XMLConfigerBuilder" style="stroke: #A80036; stroke-width: 1.0;" />
        <polygon fill="#A80036" points="1430.31,275.04,1438.3476,280.7319,1435.2124,276.0233,1439.9209,272.8881,1430.31,275.04" style="stroke: #A80036; stroke-width: 1.0;" />
        <!--MD5=[524a16e643b560f007b1f811686ceaf5]
reverse link Resources to XMLConfigerBuilder-->
        <path codeLine="61" d="M1911.7,273.72 C1908.66,298.33 1904.58,331.28 1901.49,356.23 " fill="none" id="Resources-backto-XMLConfigerBuilder" style="stroke: #A80036; stroke-width: 1.0; stroke-dasharray: 7.0,7.0;" />
        <polygon fill="#A80036" points="1912.34,268.6,1907.2636,277.0398,1911.7251,273.562,1915.2028,278.0236,1912.34,268.6" style="stroke: #A80036; stroke-width: 1.0;" />
        <!--MD5=[eacf9cff2021a758435ac65b61b97bbe]
reverse link DataSource to XMLConfigerBuilder-->
        <path codeLine="62" d="M1422.44,117.73 C1514.94,171.29 1728.36,294.86 1834.59,356.36 " fill="none" id="DataSource-backto-XMLConfigerBuilder" style="stroke: #A80036; stroke-width: 1.0; stroke-dasharray: 7.0,7.0;" />
        <polygon fill="#A80036" points="1417.86,115.08,1423.6333,123.0593,1422.1835,117.5914,1427.6515,116.1416,1417.86,115.08" style="stroke: #A80036; stroke-width: 1.0;" />
        <!--MD5=[7cd3b97384e73f408d72db26b2cdca56]
reverse link XMLConfigerBuilder to XMLMapperBuilder-->
        <path codeLine="63" d="M1905.62,435.65 C1910.27,457.87 1915.96,485.03 1920.44,506.41 " fill="none" id="XMLConfigerBuilder-backto-XMLMapperBuilder" style="stroke: #A80036; stroke-width: 1.0; stroke-dasharray: 7.0,7.0;" />
        <polygon fill="#A80036" points="1904.58,430.7,1902.5199,440.331,1905.6101,435.5927,1910.3483,438.6829,1904.58,430.7" style="stroke: #A80036; stroke-width: 1.0;" />
        <!--MD5=[2dcb5cbc91d4f63b8a8792473f584f4c]
reverse link Configuration to XMLMapperBuilder-->
        <path codeLine="68" d="M1290,279.66 C1312.46,331.47 1352.4,416.76 1380,437 C1447.97,486.85 1676.71,517.67 1816.27,532.3 " fill="none" id="Configuration-backto-XMLMapperBuilder" style="stroke: #A80036; stroke-width: 1.0;" />
        <polygon fill="#A80036" points="1288.01,275.07,1287.9157,284.9184,1289.9968,279.6583,1295.2569,281.7395,1288.01,275.07" style="stroke: #A80036; stroke-width: 1.0;" />
        <!--MD5=[9799dc32d92aa56466a0950e15a81a7d]
reverse link Resources to XMLMapperBuilder-->
        <path codeLine="69" d="M2049.73,271.09 C2065.56,280.22 2079.72,291.94 2090,307 C2122.58,354.71 2117.54,386.21 2090,437 C2073.76,466.95 2044.94,489.73 2016.05,506.33 " fill="none" id="Resources-backto-XMLMapperBuilder" style="stroke: #A80036; stroke-width: 1.0; stroke-dasharray: 7.0,7.0;" />
        <polygon fill="#A80036" points="2045.22,268.59,2051.1448,276.4574,2049.5908,271.0182,2055.03,269.4642,2045.22,268.59" style="stroke: #A80036; stroke-width: 1.0;" />
        <!--MD5=[5ef090f2f1db25b5a156765c77d8cc0f]
reverse link MappedStatement to XMLMapperBuilder-->
        <path codeLine="70" d="M1293.83,137.13 C1298.22,138.6 1302.63,139.91 1307,141 C1389.17,161.56 1999.45,116.14 2069,164.5 C2170.67,235.19 2190.84,330.9 2127,437 C2107.29,469.75 2073.62,492.87 2039.52,508.95 " fill="none" id="MappedStatement-backto-XMLMapperBuilder" style="stroke: #A80036; stroke-width: 1.0; stroke-dasharray: 7.0,7.0;" />
        <polygon fill="#A80036" points="1289.07,135.47,1296.2588,142.2021,1293.7931,137.1109,1298.8843,134.6452,1289.07,135.47" style="stroke: #A80036; stroke-width: 1.0;" />
        <!--MD5=[c5e2eb0b8c1303db29e469f0b12aaca9]
reverse link Configuration to DefaultSqlSessionFactory-->
        <path codeLine="80" d="M1188.18,277.86 C1175.34,286.22 1163.05,295.93 1153,307 C1110.46,353.83 1146.85,400.75 1095,437 C936.53,547.78 414.93,451.56 227,497 C219.8,498.74 212.46,500.93 205.18,503.4 " fill="none" id="Configuration-backto-DefaultSqlSessionFactory" style="stroke: #A80036; stroke-width: 1.0;" />
        <polygon fill="#A80036" points="1192.55,275.07,1182.8105,276.5336,1188.3335,277.7572,1187.1099,283.2801,1192.55,275.07" style="stroke: #A80036; stroke-width: 1.0;" />
        <!--MD5=[085d84527704ae27140172ab6f0e8639]
reverse link SqlSessionFactory to DefaultSqlSessionFactory-->
        <path codeLine="81" d="M404.59,431.9 C400.34,433.65 396.13,435.36 392,437 C319.51,465.87 299.55,468.27 227,497 C221.32,499.25 215.49,501.61 209.63,504.02 " fill="none" id="SqlSessionFactory-backto-DefaultSqlSessionFactory" style="stroke: #A80036; stroke-width: 1.0; stroke-dasharray: 7.0,7.0;" />
        <polygon fill="none" points="402.12,425.34,423.28,424.08,407.53,438.26,402.12,425.34" style="stroke: #A80036; stroke-width: 1.0;" />
        <!--MD5=[61988d07c5690b9344e46ebadaa7ff2a]
reverse link SqlSession to DefaultSqlSessionFactory-->
        <path codeLine="82" d="M176.82,441.76 C165.82,461.61 153.17,484.43 142.7,503.33 " fill="none" id="SqlSession-backto-DefaultSqlSessionFactory" style="stroke: #A80036; stroke-width: 1.0; stroke-dasharray: 7.0,7.0;" />
        <polygon fill="#A80036" points="179.28,437.31,171.4126,443.2348,176.8518,441.6808,178.4058,447.12,179.28,437.31" style="stroke: #A80036; stroke-width: 1.0;" />
        <!--MD5=[22bf950dbad0c6aaf778d6c115c20207]
reverse link Configuration to DefualtSqlSession-->
        <path codeLine="94" d="M1242.43,279.35 C1236.08,288.29 1229.62,297.83 1224,307 C1190.02,362.41 1211.04,400.88 1157,437 C1024.07,525.85 595.2,458.56 440,497 C432.85,498.77 425.56,500.96 418.32,503.42 " fill="none" id="Configuration-backto-DefualtSqlSession" style="stroke: #A80036; stroke-width: 1.0;" />
        <polygon fill="#A80036" points="1245.53,275.02,1237.0307,279.9961,1242.613,279.0809,1243.5281,284.6633,1245.53,275.02" style="stroke: #A80036; stroke-width: 1.0;" />
        <!--MD5=[e248a40b48587f18974338599637be20]
reverse link Executor to DefualtSqlSession-->
        <path codeLine="95" d="M671.85,431.81 C599.62,449.2 514.96,471.67 440,497 C433.98,499.04 427.81,501.26 421.64,503.59 " fill="none" id="Executor-backto-DefualtSqlSession" style="stroke: #A80036; stroke-width: 1.0;" />
        <polygon fill="#A80036" points="677.03,430.56,667.343,428.7816,672.1694,431.7323,669.2187,436.5586,677.03,430.56" style="stroke: #A80036; stroke-width: 1.0;" />
        <!--MD5=[a04be841ab022f81fe3e2be215b24778]
reverse link SqlSession to DefualtSqlSession-->
        <path codeLine="96" d="M253.95,452.51 C268.92,469.55 284.93,487.77 298.59,503.33 " fill="none" id="SqlSession-backto-DefualtSqlSession" style="stroke: #A80036; stroke-width: 1.0; stroke-dasharray: 7.0,7.0;" />
        <polygon fill="none" points="248.54,456.95,240.6,437.31,259.06,447.71,248.54,456.95" style="stroke: #A80036; stroke-width: 1.0;" />
        <!--MD5=[2f6ececeee6908f263f274efbdab9d98]
reverse link Configuration to Executor-->
        <path codeLine="102" d="M1166.8,276.82 C1098.64,301.1 1010.62,332.45 943.41,356.38 " fill="none" id="Configuration-backto-Executor" style="stroke: #A80036; stroke-width: 1.0;" />
        <polygon fill="#A80036" points="1171.68,275.09,1161.8607,274.3274,1166.9674,276.7608,1164.534,281.8675,1171.68,275.09" style="stroke: #A80036; stroke-width: 1.0;" />
        <!--MD5=[a5c713b0b6c778b4f744791ff37634fc]
reverse link MappedStatement to Executor-->
        <path codeLine="103" d="M1125.46,143.91 C1115.71,150.62 1106.03,157.58 1097,164.5 C1015.23,227.19 927.17,309.63 878.9,356.26 " fill="none" id="MappedStatement-backto-Executor" style="stroke: #A80036; stroke-width: 1.0;" />
        <polygon fill="#A80036" points="1129.64,141.05,1119.9546,142.8369,1125.5152,143.876,1124.4762,149.4366,1129.64,141.05" style="stroke: #A80036; stroke-width: 1.0;" />
        <!--MD5=[bfa7acbb712bf71bcc55cedf7104551e]
reverse link BoundSql to SimpleExecutor-->
        <path codeLine="109" d="M1405.18,431.93 C1332.95,451.69 1243.73,476.1 1167.51,496.95 " fill="none" id="BoundSql-backto-SimpleExecutor" style="stroke: #A80036; stroke-width: 1.0; stroke-dasharray: 7.0,7.0;" />
        <polygon fill="#A80036" points="1410.35,430.52,1400.6102,429.0583,1405.5302,431.8501,1402.7384,436.7701,1410.35,430.52" style="stroke: #A80036; stroke-width: 1.0;" />
        <!--MD5=[44012ca7002a98c4a109d6fe0af6400e]
reverse link Executor to SimpleExecutor-->
        <path codeLine="110" d="M895.63,444.42 C913.85,461.38 934.11,480.24 951.96,496.85 " fill="none" id="Executor-backto-SimpleExecutor" style="stroke: #A80036; stroke-width: 1.0; stroke-dasharray: 7.0,7.0;" />
        <polygon fill="none" points="890.77,449.46,880.9,430.7,900.3,439.21,890.77,449.46" style="stroke: #A80036; stroke-width: 1.0;" />
        <!--MD5=[d3fd99f9a6ed2d02ac5907e2df782e4e]
@startuml
package pojo{
  class Configuration
  class DataSource
  class MappedStatement
}

package io{
  class Resources
}

package config{
  class BoundSql
  class XMLConfigerBuilder
  class XMLMapperBuilder
}

package sqlSession{
  interface SqlSession
  class DefualtSqlSession
  class SqlSessionFactory
  class SqlSessionFactoryBuilder
  class DefaultSqlSessionFactory
  class Executor
  class SimpleExecutor
}
+class Configuration {
  -DataSource dataSource
  -Map<String,MappedStatement> mappedStatementMap
}

+class DataSource{

}
DataSource <- - Configuration


+class MappedStatement{
  -Integer id
  -String sql
  -Class<?> parameterType
  -Class<?> resultType
}
MappedStatement <- - Configuration

+class Resources{
  +InputStream getResourceAsSteam(String path)
}

+class SqlSessionFactoryBuilder{
  -Configuration configuration
  +SqlSessionFactory build(InputStream stream)
}
Configuration <- - SqlSessionFactoryBuilder
SqlSessionFactory<.. SqlSessionFactoryBuilder

+class XMLConfigerBuilder{
  -Configuration configuration
  +Configuration parseConfiguration(InputStream inputStream)
}
Configuration <- - XMLConfigerBuilder
Resources <.. XMLConfigerBuilder
DataSource <.. XMLConfigerBuilder
XMLConfigerBuilder <.. XMLMapperBuilder
+class XMLMapperBuilder {
    -Configuration configuration
    +void parse(InputStream inputStream)
}
Configuration <- - XMLMapperBuilder
Resources <.. XMLMapperBuilder
MappedStatement <.. XMLMapperBuilder
+interface SqlSessionFactory {
    +SqlSession openSession()
}

class DefaultSqlSessionFactory <<SqlSessionFactory>>{
  -Configuration configuration
  +SqlSession openSession()

}
Configuration <- - DefaultSqlSessionFactory
SqlSessionFactory <|.. DefaultSqlSessionFactory
SqlSession <.. DefaultSqlSessionFactory

+interface SqlSession{
+<E> List<E> selectList(String statementId, Object... param)
+<T> T selectOne(String statementId,Object... params)
+void close()
}

+class DefualtSqlSession <<SqlSession>>{
  -Configuration configuration
  -Executor executor
}
Configuration <- - DefualtSqlSession
Executor <- - DefualtSqlSession
SqlSession <|.. DefualtSqlSession

+interface Executor{
  <E> List<E> query(Configuration config,MappedStatement statement,Object params)
  void close()
}
Configuration <- - Executor
MappedStatement <- - Executor
+class SimpleExecutor <<Executor>>{
  -BoundSql getBoundSql(String sql)
  <E> List<E> query(Configuration config,MappedStatement statement,Object params)
  void close()
}
BoundSql <.. SimpleExecutor
Executor <|.. SimpleExecutor
+class BoundSql{
  -String sqlText
  -List<ParameterMapping> parameterMappingList;
}
@enduml

PlantUML version 1.2020.16(Mon Aug 24 04:20:43 CST 2020)
(GPL source distribution)
Java Runtime: Java(TM) SE Runtime Environment
JVM: Java HotSpot(TM) 64-Bit Server VM
Default Encoding: UTF-8
Language: en
Country: CN
-->
    </g>
</svg>